<?xml version="1.0" encoding="utf-8"?>
<!-- Generator: Adobe Illustrator 19.1.0, SVG Export Plug-In . SVG Version: 6.00 Build 0)  -->
<svg version="1.1" id="Слой_3" xmlns="http://www.w3.org/2000/svg" xmlns:xlink="http://www.w3.org/1999/xlink" x="0px" y="0px"
	 viewBox="0 0 128 128" enable-background="new 0 0 128 128" xml:space="preserve">
<g>
	<path d="M78.101,80.321c-8.92,0-17.066-3.233-22.936-9.104c-6.683-6.682-9.862-16.022-8.953-26.299
		c0.891-10.077,5.63-19.875,13.345-27.589C68.133,8.752,79.415,3.834,90.511,3.834c8.92,0,17.065,3.233,22.935,9.103
		c6.683,6.682,9.862,16.022,8.953,26.299c-0.891,10.077-5.631,19.875-13.345,27.59C100.479,75.402,89.196,80.321,78.101,80.321z
		 M90.511,9.834c-9.516,0-19.252,4.278-26.712,11.738c-6.72,6.72-10.843,15.199-11.61,23.875c-0.75,8.478,1.814,16.123,7.219,21.528
		c4.737,4.737,11.376,7.346,18.693,7.346c9.516,0,19.252-4.278,26.711-11.737c6.72-6.72,10.843-15.2,11.61-23.876
		c0.75-8.478-1.813-16.123-7.219-21.528C104.467,12.442,97.828,9.834,90.511,9.834z"/>
	<path d="M11.364,123.763c-2.165,0-4.158-0.801-5.613-2.257c-3.417-3.416-3.323-8.864,0.214-12.402l19.092-19.092
		c1.945-1.945,4.725-3.106,7.435-3.106c2.233,0,4.244,0.78,5.661,2.197c3.269,3.269,2.927,8.928-0.761,12.615l-19.027,19.027
		C16.448,122.663,13.896,123.763,11.364,123.763z M32.493,92.905c-1.137,0-2.361,0.517-3.193,1.349l-19.092,19.091
		c-1.356,1.357-1.134,2.998-0.215,3.918c0.413,0.412,0.973,0.499,1.371,0.499c0.938,0,1.97-0.471,2.759-1.26l19.027-19.027
		c1.302-1.303,1.658-3.233,0.761-4.13C33.632,93.066,33.115,92.905,32.493,92.905z"/>
	<path d="M28.749,93.79c-0.768,0-1.536-0.293-2.121-0.879c-1.172-1.171-1.172-3.071,0-4.242
		c18.205-18.205,21.937-28.385,21.237-30.033c-0.643-1.512,0.037-3.292,1.542-3.952c1.504-0.66,3.247-0.018,3.924,1.479
		c4.017,8.878-14.37,28.657-22.461,36.748C30.285,93.497,29.517,93.79,28.749,93.79z"/>
	<path d="M36.414,101.455c-0.768,0-1.536-0.293-2.122-0.879c-1.171-1.171-1.171-3.071,0-4.243
		c10.13-10.13,28.344-26.574,36.537-22.871c1.51,0.683,2.18,2.46,1.497,3.97c-0.682,1.509-2.458,2.183-3.97,1.497
		c-1.911-0.759-11.723,3.548-29.822,21.647C37.949,101.162,37.181,101.455,36.414,101.455z"/>
	<path d="M86.049,120.834c-4.941,0-9.587-1.924-13.081-5.419c-3.495-3.494-5.419-8.139-5.419-13.081s1.924-9.587,5.419-13.081
		c3.494-3.494,8.14-5.419,13.081-5.419c4.941,0,9.587,1.924,13.081,5.419c3.495,3.494,5.419,8.139,5.419,13.081
		s-1.924,9.587-5.419,13.081C95.636,118.91,90.99,120.834,86.049,120.834z M86.049,89.834c-3.339,0-6.478,1.3-8.839,3.661
		c-2.361,2.361-3.661,5.5-3.661,8.839s1.3,6.478,3.661,8.838c2.361,2.361,5.5,3.662,8.839,3.662c3.339,0,6.477-1.3,8.839-3.661
		c2.361-2.361,3.661-5.5,3.661-8.839s-1.3-6.478-3.661-8.838C92.526,91.134,89.388,89.834,86.049,89.834z"/>
	<path d="M74.719,104.296c-1.587,0-3.185-0.268-4.724-0.821c-0.768-0.276-1.291-0.991-1.322-1.806l-0.007-0.192
		c-0.021-1.104,0.857-2.017,1.962-2.038c0.498-0.028,0.966,0.167,1.322,0.466c3.476,1.006,7.285,0.049,9.856-2.521
		c2.706-2.706,3.62-6.647,2.386-10.287c-0.355-1.046,0.205-2.182,1.251-2.537c1.049-0.355,2.182,0.206,2.536,1.251
		c1.728,5.093,0.446,10.611-3.345,14.401C81.979,102.869,78.378,104.296,74.719,104.296z"/>
	<path d="M87.207,119.515c-0.881,0-1.687-0.586-1.929-1.476c-1.317-4.841,0.062-10.046,3.599-13.584
		c3.7-3.7,9.106-5.021,14.112-3.446c1.054,0.331,1.639,1.455,1.308,2.508c-0.333,1.054-1.455,1.64-2.509,1.308
		c-3.576-1.125-7.44-0.183-10.083,2.46c-2.525,2.525-3.509,6.244-2.567,9.705c0.29,1.066-0.339,2.165-1.404,2.455
		C87.558,119.492,87.381,119.515,87.207,119.515z"/>
	<path d="M58.292,70.091c-0.512,0-1.023-0.195-1.414-0.586c-0.781-0.781-0.781-2.047,0-2.828l52.326-52.326
		c0.781-0.781,2.047-0.781,2.828,0c0.781,0.781,0.781,2.047,0,2.828L59.706,69.505C59.316,69.896,58.803,70.091,58.292,70.091z"/>
	<path d="M51.928,60.899c-0.512,0-1.023-0.195-1.414-0.586c-0.781-0.781-0.781-2.047,0-2.828L98.597,9.401
		c0.781-0.781,2.047-0.781,2.828,0c0.781,0.781,0.781,2.047,0,2.828L53.342,60.313C52.952,60.704,52.44,60.899,51.928,60.899z"/>
	<path d="M67.484,76.455c-0.512,0-1.023-0.195-1.414-0.586c-0.781-0.781-0.781-2.047,0-2.828l48.083-48.083
		c0.781-0.781,2.047-0.781,2.828,0c0.781,0.781,0.781,2.047,0,2.828L68.899,75.869C68.508,76.26,67.996,76.455,67.484,76.455z"/>
	<path d="M48.392,48.878c-0.512,0-1.024-0.195-1.414-0.586c-0.781-0.781-0.781-2.047,0-2.828L86.576,5.866
		c0.781-0.781,2.047-0.781,2.828,0c0.781,0.781,0.781,2.047,0,2.828L49.806,48.292C49.416,48.683,48.904,48.878,48.392,48.878z"/>
	<path d="M79.505,79.991c-0.512,0-1.023-0.195-1.414-0.586c-0.781-0.781-0.781-2.047,0-2.828l39.598-39.598
		c0.781-0.781,2.047-0.781,2.828,0c0.781,0.781,0.781,2.047,0,2.828L80.919,79.405C80.528,79.795,80.017,79.991,79.505,79.991z"/>
	<path d="M106.375,65.849c-0.512,0-1.023-0.195-1.414-0.586L61.12,21.422c-0.781-0.781-0.781-2.047,0-2.828
		c0.78-0.781,2.048-0.781,2.828,0l43.841,43.841c0.781,0.781,0.781,2.047,0,2.828C107.399,65.653,106.887,65.849,106.375,65.849z"/>
	<path d="M114.153,58.07c-0.512,0-1.023-0.195-1.414-0.586l-43.841-43.84c-0.781-0.781-0.781-2.047,0-2.828
		c0.781-0.781,2.047-0.781,2.828,0l43.841,43.84c0.781,0.781,0.781,2.047,0,2.828C115.177,57.875,114.665,58.07,114.153,58.07z"/>
	<path d="M98.597,73.627c-0.512,0-1.024-0.195-1.414-0.586L53.342,29.2c-0.781-0.781-0.781-2.047,0-2.828
		c0.78-0.781,2.048-0.781,2.828,0l43.841,43.841c0.781,0.781,0.781,2.047,0,2.828C99.62,73.432,99.109,73.627,98.597,73.627z"/>
	<path d="M118.396,46.757c-0.512,0-1.023-0.195-1.414-0.586l-36.77-36.77c-0.781-0.781-0.781-2.047,0-2.828
		c0.781-0.781,2.047-0.781,2.828,0l36.77,36.77c0.781,0.781,0.781,2.047,0,2.828C119.419,46.562,118.907,46.757,118.396,46.757z"/>
	<path d="M87.283,77.869c-0.512,0-1.024-0.195-1.414-0.586L49.1,40.514c-0.781-0.781-0.781-2.047,0-2.828
		c0.78-0.781,2.048-0.781,2.828,0l36.769,36.77c0.781,0.781,0.781,2.047,0,2.828C88.307,77.674,87.795,77.869,87.283,77.869z"/>
</g>
</svg>
